<svg xmlns="http://www.w3.org/2000/svg" xmlns:xlink="http://www.w3.org/1999/xlink" width="980" height="582"><g transform="translate(-780 -49)"><path d="M880 280l80 60-80 60-80-60z" stroke="#000" stroke-width="2" fill="#fff"/><use xlink:href="#a" transform="matrix(1,0,0,1,805,285) translate(34.074999999999996 47.8)"/><use xlink:href="#b" transform="matrix(1,0,0,1,805,285) translate(38.025 69.4)"/><path d="M880 400v59" stroke="#000" stroke-width="2" fill="none"/><path d="M880 400h-1v-.75zm1 0h-1l1-.75zM880 459l-4.64-14.27h9.28z"/><path d="M880.73 460h-1.46L874 443.73h12zm-4-14.27l3.27 10.03 3.26-10.03z"/><path fill="#fff" d="M865.33 418.7h29.36v21.6h-29.37z"/><use xlink:href="#c" transform="matrix(1,0,0,1,865.325,418.7) translate(0 14.4)"/><path d="M960 340h40V240H880v40" stroke="#000" stroke-width="2" fill="none"/><path d="M960 341h-1.33l1.33-1-1.33-1H960zM880 280l-4.64-14.27h9.28z"/><path d="M880.85 280.63L880 280l-.85.63-5.16-15.9h12zm-4.1-13.9l3.25 10.03 3.26-10.03z"/><path fill="#fff" d="M978.52 229.2h22.96v21.6h-22.96z"/><use xlink:href="#d" transform="matrix(1,0,0,1,978.525,229.2) translate(0 14.4)"/><path d="M880 220v58.75" stroke="#000" stroke-width="2" fill="none"/><path d="M880 278.75l-4.64-14.27h9.28z"/><path d="M880.52 280.4l-.52-.4-.52.4-5.5-16.92h12.03zm-3.78-14.92L880 275.5l3.26-10.02z"/><path d="M800 460h160v120H800z" stroke="#000" stroke-width="2" fill="#fff"/><use xlink:href="#e" transform="matrix(1,0,0,1,805,465) translate(30.099999999999994 37)"/><use xlink:href="#f" transform="matrix(1,0,0,1,805,465) translate(102 37)"/><use xlink:href="#g" transform="matrix(1,0,0,1,805,465) translate(18.099999999999994 58.6)"/><use xlink:href="#h" transform="matrix(1,0,0,1,805,465) translate(96 58.6)"/><use xlink:href="#i" transform="matrix(1,0,0,1,805,465) translate(48.025 80.20000000000002)"/><path d="M1060 100h160v120h-160z" stroke="#000" stroke-width="2" fill="#fff"/><use xlink:href="#j" transform="matrix(1,0,0,1,1065,105) translate(11.549999999999997 47.8)"/><use xlink:href="#k" transform="matrix(1,0,0,1,1065,105) translate(91.5 47.8)"/><use xlink:href="#l" transform="matrix(1,0,0,1,1065,105) translate(55.525 69.4)"/><path d="M880 580v40h140V160h40" stroke="#000" stroke-width="2" fill="none"/><path d="M1060 160l-14.27 4.64v-9.28z"/><path d="M1060 158.95v2.1l-15.27 4.96v-12zm-13.27 4.3l10.03-3.25-10.03-3.26z"/><path d="M1060 280h160v120h-160z" stroke="#000" stroke-width="2" fill="#fff"/><use xlink:href="#j" transform="matrix(1,0,0,1,1065,285) translate(5.525000000000006 47.8)"/><use xlink:href="#m" transform="matrix(1,0,0,1,1065,285) translate(85.47500000000001 47.8)"/><use xlink:href="#n" transform="matrix(1,0,0,1,1065,285) translate(31.049999999999997 69.4)"/><use xlink:href="#o" transform="matrix(1,0,0,1,1065,285) translate(66.05 69.4)"/><path d="M1140 220v60" stroke="#000" stroke-width="2" fill="none"/><path d="M1140 280l-4.64-14.27h9.28z"/><path d="M1141.05 280h-2.1l-4.96-15.27h12zm-4.3-13.27l3.25 10.03 3.26-10.03z"/><path d="M832 100h112c8.84 0 16 26.86 16 60s-7.16 60-16 60H832l-32-60z" stroke="#000" stroke-width="2" fill="#fff"/><use xlink:href="#p" transform="matrix(1,0,0,1,805,105) translate(19.124999999999993 47.8)"/><use xlink:href="#q" transform="matrix(1,0,0,1,805,105) translate(82.975 47.8)"/><use xlink:href="#i" transform="matrix(1,0,0,1,805,105) translate(48.025 69.4)"/><path d="M1092 460h112c8.84 0 16 26.86 16 60s-7.16 60-16 60h-112l-32-60z" stroke="#000" stroke-width="2" fill="#fff"/><use xlink:href="#p" transform="matrix(1,0,0,1,1065,465) translate(13.574999999999996 37)"/><use xlink:href="#m" transform="matrix(1,0,0,1,1065,465) translate(77.42500000000001 37)"/><use xlink:href="#n" transform="matrix(1,0,0,1,1065,465) translate(3.549999999999997 58.6)"/><use xlink:href="#r" transform="matrix(1,0,0,1,1065,465) translate(38.55 58.6)"/><use xlink:href="#s" transform="matrix(1,0,0,1,1065,465) translate(96.45 58.6)"/><use xlink:href="#t" transform="matrix(1,0,0,1,1065,465) translate(121.45 58.6)"/><use xlink:href="#i" transform="matrix(1,0,0,1,1065,465) translate(48.025 80.20000000000002)"/><path d="M1140 400v60" stroke="#000" stroke-width="2" fill="none"/><path d="M1140 460l-4.64-14.27h9.28z"/><path d="M1141.05 460h-2.1l-4.96-15.27h12zm-4.3-13.27l3.25 10.03 3.26-10.03z"/><path d="M1400 100l80 60-80 60-80-60z" stroke="#000" stroke-width="2" fill="#fff"/><use xlink:href="#u" transform="matrix(1,0,0,1,1325,105) translate(1.0250000000000057 58.6)"/><use xlink:href="#v" transform="matrix(1,0,0,1,1325,105) translate(20.025000000000006 58.6)"/><use xlink:href="#b" transform="matrix(1,0,0,1,1325,105) translate(75.025 58.6)"/><path d="M1140 580v40h140V160h40" stroke="#000" stroke-width="2" fill="none"/><path d="M1320 160l-14.27 4.64v-9.28z"/><path d="M1320.98 159.27l-.98.73.98.73-16.25 5.28v-12zm-14.25 4l10.03-3.27-10.03-3.26z"/><path d="M1400 220v60" stroke="#000" stroke-width="2" fill="none"/><path d="M1400 220h-1v-.75zm1 0h-1l1-.75zM1400 280l-4.64-14.27h9.28z"/><path d="M1400.85 280.63l-.85-.63-.85.63-5.16-15.9h12zm-4.1-13.9l3.25 10.03 3.26-10.03z"/><path fill="#fff" d="M1385.33 239.2h29.36v21.6h-29.37z"/><use xlink:href="#c" transform="matrix(1,0,0,1,1385.325,239.2) translate(0 14.4)"/><path d="M1480 160h40V60h-120v40" stroke="#000" stroke-width="2" fill="none"/><path d="M1480 161h-1.33l1.33-1-1.33-1h1.33zM1400 100l-4.64-14.27h9.28z"/><path d="M1400.85 100.63l-.85-.63-.85.63-5.16-15.9h12zm-4.1-13.9l3.25 10.03 3.26-10.03z"/><path fill="#fff" d="M1488.53 149.2h22.96v21.6h-22.97z"/><use xlink:href="#d" transform="matrix(1,0,0,1,1488.525,149.2) translate(0 14.4)"/><path d="M1400 280l80 60-80 60-80-60z" stroke="#000" stroke-width="2" fill="#fff"/><use xlink:href="#u" transform="matrix(1,0,0,1,1325,285) translate(23.525 47.8)"/><use xlink:href="#w" transform="matrix(1,0,0,1,1325,285) translate(42.525 47.8)"/><use xlink:href="#x" transform="matrix(1,0,0,1,1325,285) translate(82.525 47.8)"/><use xlink:href="#t" transform="matrix(1,0,0,1,1325,285) translate(101.475 47.8)"/><use xlink:href="#y" transform="matrix(1,0,0,1,1325,285) translate(7.799999999999997 69.4)"/><use xlink:href="#z" transform="matrix(1,0,0,1,1325,285) translate(84.35 69.4)"/><path d="M1400 400v60" stroke="#000" stroke-width="2" fill="none"/><path d="M1400 400h-1v-.75zm1 0h-1l1-.75zM1400 460l-4.64-14.27h9.28z"/><path d="M1401.05 460h-2.1l-4.96-15.27h12zm-4.3-13.27l3.25 10.03 3.26-10.03z"/><path fill="#fff" d="M1385.33 419.2h29.36v21.6h-29.37z"/><g><use xlink:href="#c" transform="matrix(1,0,0,1,1385.325,419.2) translate(0 14.4)"/></g><path d="M1320 460h160v120h-160z" stroke="#000" stroke-width="2" fill="#fff"/><g><use xlink:href="#A" transform="matrix(1,0,0,1,1325,465) translate(10.574999999999989 58.6)"/><use xlink:href="#B" transform="matrix(1,0,0,1,1325,465) translate(95.475 58.6)"/></g><path d="M1480 340h40V60h-120v40" stroke="#000" stroke-width="2" fill="none"/><path d="M1480 341h-1.33l1.33-1-1.33-1h1.33zM1400 100l-4.64-14.27h9.28z"/><path d="M1400.85 100.63l-.85-.63-.85.63-5.16-15.9h12zm-4.1-13.9l3.25 10.03 3.26-10.03z"/><path fill="#fff" d="M1508.53 311.87h22.96v21.6h-22.97z"/><g><use xlink:href="#d" transform="matrix(1,0,0,1,1508.525,311.8666666666667) translate(0 14.4)"/></g><path d="M1612 100h112c8.84 0 16 26.86 16 60s-7.16 60-16 60h-112l-32-60z" stroke="#000" stroke-width="2" fill="#fff"/><g><use xlink:href="#p" transform="matrix(1,0,0,1,1585,105) translate(2.125 58.6)"/><use xlink:href="#C" transform="matrix(1,0,0,1,1585,105) translate(65.97500000000001 58.6)"/><use xlink:href="#B" transform="matrix(1,0,0,1,1585,105) translate(103.92500000000001 58.6)"/></g><path d="M1400 580v40h140V160h40" stroke="#000" stroke-width="2" fill="none"/><path d="M1580 160l-14.27 4.64v-9.28z"/><path d="M1580.48 159.1l-.48.9.48.9-15.75 5.1v-12zm-13.75 4.16l10.03-3.26-10.03-3.26z"/><defs><path d="M18-100v-36l175-74v27L42-118l151 64v27" id="D"/><path d="M30 0v-248h187v28H63v79h144v27H63v87h162V0H30" id="E"/><path d="M190 0L58-211 59 0H30v-248h39L202-35l-2-213h31V0h-41" id="F"/><path d="M127-220V0H93v-220H8v-28h204v28h-85" id="G"/><path d="M233-177c-1 41-23 64-60 70L243 0h-38l-65-103H63V0H30v-248c88 3 205-21 203 71zM63-129c60-2 137 13 137-47 0-61-80-42-137-45v92" id="H"/><path d="M18-27v-27l151-64-151-65v-27l175 74v36" id="I"/><g id="a"><use transform="matrix(0.05,0,0,0.05,0,0)" xlink:href="#D"/><use transform="matrix(0.05,0,0,0.05,10.5,0)" xlink:href="#E"/><use transform="matrix(0.05,0,0,0.05,22.5,0)" xlink:href="#F"/><use transform="matrix(0.05,0,0,0.05,35.45,0)" xlink:href="#G"/><use transform="matrix(0.05,0,0,0.05,46.400000000000006,0)" xlink:href="#E"/><use transform="matrix(0.05,0,0,0.05,58.400000000000006,0)" xlink:href="#H"/><use transform="matrix(0.05,0,0,0.05,71.35000000000001,0)" xlink:href="#I"/></g><path d="M115-194c55 1 70 41 70 98S169 2 115 4C84 4 66-9 55-30l1 105H24l-1-265h31l2 30c10-21 28-34 59-34zm-8 174c40 0 45-34 45-75s-6-73-45-74c-42 0-51 32-51 76 0 43 10 73 51 73" id="J"/><path d="M114-163C36-179 61-72 57 0H25l-1-190h30c1 12-1 29 2 39 6-27 23-49 58-41v29" id="K"/><path d="M100-194c63 0 86 42 84 106H49c0 40 14 67 53 68 26 1 43-12 49-29l28 8c-11 28-37 45-77 45C44 4 14-33 15-96c1-61 26-98 85-98zm52 81c6-60-76-77-97-28-3 7-6 17-6 28h103" id="L"/><path d="M135-143c-3-34-86-38-87 0 15 53 115 12 119 90S17 21 10-45l28-5c4 36 97 45 98 0-10-56-113-15-118-90-4-57 82-63 122-42 12 7 21 19 24 35" id="M"/><path d="M85-194c31 0 48 13 60 33l-1-100h32l1 261h-30c-2-10 0-23-3-31C134-8 116 4 85 4 32 4 16-35 15-94c0-66 23-100 70-100zm9 24c-40 0-46 34-46 75 0 40 6 74 45 74 42 0 51-32 51-76 0-42-9-74-50-73" id="N"/><path d="M103-251c84 0 111 97 45 133-19 10-37 24-39 52H78c0-63 77-55 77-114 0-30-21-42-52-43-32 0-53 17-56 46l-32-2c7-45 34-72 88-72zM77 0v-35h34V0H77" id="O"/><g id="b"><use transform="matrix(0.05,0,0,0.05,0,0)" xlink:href="#J"/><use transform="matrix(0.05,0,0,0.05,10,0)" xlink:href="#K"/><use transform="matrix(0.05,0,0,0.05,15.949999999999998,0)" xlink:href="#L"/><use transform="matrix(0.05,0,0,0.05,25.950000000000003,0)" xlink:href="#M"/><use transform="matrix(0.05,0,0,0.05,34.95,0)" xlink:href="#M"/><use transform="matrix(0.05,0,0,0.05,43.95,0)" xlink:href="#L"/><use transform="matrix(0.05,0,0,0.05,53.95,0)" xlink:href="#N"/><use transform="matrix(0.05,0,0,0.05,63.95,0)" xlink:href="#O"/></g><path d="M137-103V0h-34v-103L8-248h37l75 118 75-118h37" id="P"/><g id="c"><use transform="matrix(0.05,0,0,0.05,0,0)" xlink:href="#P"/><use transform="matrix(0.05,0,0,0.05,10.35,0)" xlink:href="#L"/><use transform="matrix(0.05,0,0,0.05,20.35,0)" xlink:href="#M"/></g><path d="M100-194c62-1 85 37 85 99 1 63-27 99-86 99S16-35 15-95c0-66 28-99 85-99zM99-20c44 1 53-31 53-75 0-43-8-75-51-75s-53 32-53 75 10 74 51 75" id="Q"/><g id="d"><use transform="matrix(0.05,0,0,0.05,0,0)" xlink:href="#F"/><use transform="matrix(0.05,0,0,0.05,12.950000000000001,0)" xlink:href="#Q"/></g><path d="M210-169c-67 3-38 105-44 169h-31v-121c0-29-5-50-35-48C34-165 62-65 56 0H25l-1-190h30c1 10-1 24 2 32 10-44 99-50 107 0 11-21 27-35 58-36 85-2 47 119 55 194h-31v-121c0-29-5-49-35-48" id="R"/><path d="M108 0H70L1-190h34L89-25l56-165h34" id="S"/><g id="e"><use transform="matrix(0.05,0,0,0.05,0,0)" xlink:href="#H"/><use transform="matrix(0.05,0,0,0.05,12.950000000000001,0)" xlink:href="#L"/><use transform="matrix(0.05,0,0,0.05,22.950000000000003,0)" xlink:href="#R"/><use transform="matrix(0.05,0,0,0.05,37.900000000000006,0)" xlink:href="#Q"/><use transform="matrix(0.05,0,0,0.05,47.900000000000006,0)" xlink:href="#S"/><use transform="matrix(0.05,0,0,0.05,56.900000000000006,0)" xlink:href="#L"/></g><path d="M141-36C126-15 110 5 73 4 37 3 15-17 15-53c-1-64 63-63 125-63 3-35-9-54-41-54-24 1-41 7-42 31l-33-3c5-37 33-52 76-52 45 0 72 20 72 64v82c-1 20 7 32 28 27v20c-31 9-61-2-59-35zM48-53c0 20 12 33 32 33 41-3 63-29 60-74-43 2-92-5-92 41" id="T"/><path d="M24 0v-261h32V0H24" id="U"/><g id="f"><use transform="matrix(0.05,0,0,0.05,0,0)" xlink:href="#T"/><use transform="matrix(0.05,0,0,0.05,10,0)" xlink:href="#U"/><use transform="matrix(0.05,0,0,0.05,13.949999999999998,0)" xlink:href="#U"/></g><path d="M117-194c89-4 53 116 60 194h-32v-121c0-31-8-49-39-48C34-167 62-67 57 0H25l-1-190h30c1 10-1 24 2 32 11-22 29-35 61-36" id="V"/><path d="M59-47c-2 24 18 29 38 22v24C64 9 27 4 27-40v-127H5v-23h24l9-43h21v43h35v23H59v120" id="W"/><g id="g"><use transform="matrix(0.05,0,0,0.05,0,0)" xlink:href="#L"/><use transform="matrix(0.05,0,0,0.05,10,0)" xlink:href="#U"/><use transform="matrix(0.05,0,0,0.05,13.949999999999998,0)" xlink:href="#L"/><use transform="matrix(0.05,0,0,0.05,23.95,0)" xlink:href="#R"/><use transform="matrix(0.05,0,0,0.05,38.9,0)" xlink:href="#L"/><use transform="matrix(0.05,0,0,0.05,48.9,0)" xlink:href="#V"/><use transform="matrix(0.05,0,0,0.05,58.900000000000006,0)" xlink:href="#W"/><use transform="matrix(0.05,0,0,0.05,63.900000000000006,0)" xlink:href="#M"/></g><path d="M101-234c-31-9-42 10-38 44h38v23H63V0H32v-167H5v-23h27c-7-52 17-82 69-68v24" id="X"/><g id="h"><use transform="matrix(0.05,0,0,0.05,0,0)" xlink:href="#X"/><use transform="matrix(0.05,0,0,0.05,5,0)" xlink:href="#K"/><use transform="matrix(0.05,0,0,0.05,10.95,0)" xlink:href="#Q"/><use transform="matrix(0.05,0,0,0.05,20.95,0)" xlink:href="#R"/></g><path d="M96-169c-40 0-48 33-48 73s9 75 48 75c24 0 41-14 43-38l32 2c-6 37-31 61-74 61-59 0-76-41-82-99-10-93 101-131 147-64 4 7 5 14 7 22l-32 3c-4-21-16-35-41-35" id="Y"/><g id="i"><use transform="matrix(0.05,0,0,0.05,0,0)" xlink:href="#M"/><use transform="matrix(0.05,0,0,0.05,9,0)" xlink:href="#Y"/><use transform="matrix(0.05,0,0,0.05,18,0)" xlink:href="#K"/><use transform="matrix(0.05,0,0,0.05,23.95,0)" xlink:href="#L"/><use transform="matrix(0.05,0,0,0.05,33.95,0)" xlink:href="#L"/><use transform="matrix(0.05,0,0,0.05,43.95,0)" xlink:href="#V"/></g><path d="M143 4C61 4 22-44 18-125c-5-107 100-154 193-111 17 8 29 25 37 43l-32 9c-13-25-37-40-76-40-61 0-88 39-88 99 0 61 29 100 91 101 35 0 62-11 79-27v-45h-74v-28h105v86C228-13 192 4 143 4" id="Z"/><g id="j"><use transform="matrix(0.05,0,0,0.05,0,0)" xlink:href="#Z"/><use transform="matrix(0.05,0,0,0.05,14,0)" xlink:href="#L"/><use transform="matrix(0.05,0,0,0.05,24,0)" xlink:href="#V"/><use transform="matrix(0.05,0,0,0.05,34,0)" xlink:href="#L"/><use transform="matrix(0.05,0,0,0.05,44,0)" xlink:href="#K"/><use transform="matrix(0.05,0,0,0.05,49.95,0)" xlink:href="#T"/><use transform="matrix(0.05,0,0,0.05,59.95,0)" xlink:href="#W"/><use transform="matrix(0.05,0,0,0.05,64.95,0)" xlink:href="#L"/></g><g id="k"><use transform="matrix(0.05,0,0,0.05,0,0)" xlink:href="#F"/><use transform="matrix(0.05,0,0,0.05,12.950000000000001,0)" xlink:href="#Q"/><use transform="matrix(0.05,0,0,0.05,22.950000000000003,0)" xlink:href="#W"/><use transform="matrix(0.05,0,0,0.05,27.950000000000003,0)" xlink:href="#L"/><use transform="matrix(0.05,0,0,0.05,37.95,0)" xlink:href="#M"/></g><path d="M115-194c53 0 69 39 70 98 0 66-23 100-70 100C84 3 66-7 56-30L54 0H23l1-261h32v101c10-23 28-34 59-34zm-8 174c40 0 45-34 45-75 0-40-5-75-45-74-42 0-51 32-51 76 0 43 10 73 51 73" id="aa"/><g id="l"><use transform="matrix(0.05,0,0,0.05,0,0)" xlink:href="#W"/><use transform="matrix(0.05,0,0,0.05,5,0)" xlink:href="#T"/><use transform="matrix(0.05,0,0,0.05,15,0)" xlink:href="#aa"/><use transform="matrix(0.05,0,0,0.05,25,0)" xlink:href="#U"/><use transform="matrix(0.05,0,0,0.05,28.950000000000003,0)" xlink:href="#L"/></g><path d="M84 4C-5 8 30-112 23-190h32v120c0 31 7 50 39 49 72-2 45-101 50-169h31l1 190h-30c-1-10 1-25-2-33-11 22-28 36-60 37" id="ab"/><g id="m"><use transform="matrix(0.05,0,0,0.05,0,0)" xlink:href="#aa"/><use transform="matrix(0.05,0,0,0.05,10,0)" xlink:href="#ab"/><use transform="matrix(0.05,0,0,0.05,20,0)" xlink:href="#W"/><use transform="matrix(0.05,0,0,0.05,25,0)" xlink:href="#W"/><use transform="matrix(0.05,0,0,0.05,30,0)" xlink:href="#Q"/><use transform="matrix(0.05,0,0,0.05,40,0)" xlink:href="#V"/><use transform="matrix(0.05,0,0,0.05,50,0)" xlink:href="#M"/></g><g id="n"><use transform="matrix(0.05,0,0,0.05,0,0)" xlink:href="#T"/><use transform="matrix(0.05,0,0,0.05,10,0)" xlink:href="#V"/><use transform="matrix(0.05,0,0,0.05,20,0)" xlink:href="#N"/></g><path d="M24-231v-30h32v30H24zM24 0v-190h32V0H24" id="ac"/><path d="M177-190C167-65 218 103 67 71c-23-6-38-20-44-43l32-5c15 47 100 32 89-28v-30C133-14 115 1 83 1 29 1 15-40 15-95c0-56 16-97 71-98 29-1 48 16 59 35 1-10 0-23 2-32h30zM94-22c36 0 50-32 50-73 0-42-14-75-50-75-39 0-46 34-46 75s6 73 46 73" id="ad"/><g id="o"><use transform="matrix(0.05,0,0,0.05,0,0)" xlink:href="#M"/><use transform="matrix(0.05,0,0,0.05,9,0)" xlink:href="#W"/><use transform="matrix(0.05,0,0,0.05,14,0)" xlink:href="#K"/><use transform="matrix(0.05,0,0,0.05,19.95,0)" xlink:href="#ac"/><use transform="matrix(0.05,0,0,0.05,23.9,0)" xlink:href="#V"/><use transform="matrix(0.05,0,0,0.05,33.9,0)" xlink:href="#ad"/><use transform="matrix(0.05,0,0,0.05,43.9,0)" xlink:href="#M"/></g><path d="M30-248c118-7 216 8 213 122C240-48 200 0 122 0H30v-248zM63-27c89 8 146-16 146-99s-60-101-146-95v194" id="ae"/><path d="M179-190L93 31C79 59 56 82 12 73V49c39 6 53-20 64-50L1-190h34L92-34l54-156h33" id="af"/><g id="p"><use transform="matrix(0.05,0,0,0.05,0,0)" xlink:href="#ae"/><use transform="matrix(0.05,0,0,0.05,12.950000000000001,0)" xlink:href="#ac"/><use transform="matrix(0.05,0,0,0.05,16.900000000000002,0)" xlink:href="#M"/><use transform="matrix(0.05,0,0,0.05,25.900000000000002,0)" xlink:href="#J"/><use transform="matrix(0.05,0,0,0.05,35.900000000000006,0)" xlink:href="#U"/><use transform="matrix(0.05,0,0,0.05,39.85000000000001,0)" xlink:href="#T"/><use transform="matrix(0.05,0,0,0.05,49.85000000000001,0)" xlink:href="#af"/></g><path d="M197 0v-115H63V0H30v-248h33v105h134v-105h34V0h-34" id="ag"/><g id="q"><use transform="matrix(0.05,0,0,0.05,0,0)" xlink:href="#ag"/><use transform="matrix(0.05,0,0,0.05,12.950000000000001,0)" xlink:href="#Q"/><use transform="matrix(0.05,0,0,0.05,22.950000000000003,0)" xlink:href="#R"/><use transform="matrix(0.05,0,0,0.05,37.900000000000006,0)" xlink:href="#L"/></g><g id="r"><use transform="matrix(0.05,0,0,0.05,0,0)" xlink:href="#M"/><use transform="matrix(0.05,0,0,0.05,9,0)" xlink:href="#W"/><use transform="matrix(0.05,0,0,0.05,14,0)" xlink:href="#K"/><use transform="matrix(0.05,0,0,0.05,19.95,0)" xlink:href="#ac"/><use transform="matrix(0.05,0,0,0.05,23.9,0)" xlink:href="#V"/><use transform="matrix(0.05,0,0,0.05,33.9,0)" xlink:href="#ad"/><use transform="matrix(0.05,0,0,0.05,43.9,0)" xlink:href="#M"/></g><g id="s"><use transform="matrix(0.05,0,0,0.05,0,0)" xlink:href="#Q"/><use transform="matrix(0.05,0,0,0.05,10,0)" xlink:href="#V"/></g><path d="M106-169C34-169 62-67 57 0H25v-261h32l-1 103c12-21 28-36 61-36 89 0 53 116 60 194h-32v-121c2-32-8-49-39-48" id="ah"/><g id="t"><use transform="matrix(0.05,0,0,0.05,0,0)" xlink:href="#W"/><use transform="matrix(0.05,0,0,0.05,5,0)" xlink:href="#ah"/><use transform="matrix(0.05,0,0,0.05,15,0)" xlink:href="#L"/></g><path d="M33 0v-248h34V0H33" id="ai"/><g id="u"><use transform="matrix(0.05,0,0,0.05,0,0)" xlink:href="#ai"/><use transform="matrix(0.05,0,0,0.05,5,0)" xlink:href="#M"/></g><g id="v"><use transform="matrix(0.05,0,0,0.05,0,0)" xlink:href="#aa"/><use transform="matrix(0.05,0,0,0.05,10,0)" xlink:href="#ab"/><use transform="matrix(0.05,0,0,0.05,20,0)" xlink:href="#W"/><use transform="matrix(0.05,0,0,0.05,25,0)" xlink:href="#W"/><use transform="matrix(0.05,0,0,0.05,30,0)" xlink:href="#Q"/><use transform="matrix(0.05,0,0,0.05,40,0)" xlink:href="#V"/></g><g id="w"><use transform="matrix(0.05,0,0,0.05,0,0)" xlink:href="#V"/><use transform="matrix(0.05,0,0,0.05,10,0)" xlink:href="#Q"/><use transform="matrix(0.05,0,0,0.05,20,0)" xlink:href="#W"/><use transform="matrix(0.05,0,0,0.05,25,0)" xlink:href="#L"/></g><g id="x"><use transform="matrix(0.05,0,0,0.05,0,0)" xlink:href="#ac"/><use transform="matrix(0.05,0,0,0.05,3.95,0)" xlink:href="#V"/></g><path d="M109-170H84l-4-78h32zm-65 0H19l-4-78h33" id="aj"/><path d="M212-179c-10-28-35-45-73-45-59 0-87 40-87 99 0 60 29 101 89 101 43 0 62-24 78-52l27 14C228-24 195 4 139 4 59 4 22-46 18-125c-6-104 99-153 187-111 19 9 31 26 39 46" id="ak"/><g id="y"><use transform="matrix(0.05,0,0,0.05,0,0)" xlink:href="#aj"/><use transform="matrix(0.05,0,0,0.05,6.3500000000000005,0)" xlink:href="#ak"/><use transform="matrix(0.05,0,0,0.05,19.3,0)" xlink:href="#Q"/><use transform="matrix(0.05,0,0,0.05,29.3,0)" xlink:href="#K"/><use transform="matrix(0.05,0,0,0.05,35.25,0)" xlink:href="#K"/><use transform="matrix(0.05,0,0,0.05,41.2,0)" xlink:href="#L"/><use transform="matrix(0.05,0,0,0.05,51.2,0)" xlink:href="#Y"/><use transform="matrix(0.05,0,0,0.05,60.2,0)" xlink:href="#W"/><use transform="matrix(0.05,0,0,0.05,65.2,0)" xlink:href="#aj"/></g><g id="z"><use transform="matrix(0.05,0,0,0.05,0,0)" xlink:href="#ac"/><use transform="matrix(0.05,0,0,0.05,3.95,0)" xlink:href="#V"/><use transform="matrix(0.05,0,0,0.05,13.949999999999998,0)" xlink:href="#W"/><use transform="matrix(0.05,0,0,0.05,18.95,0)" xlink:href="#L"/><use transform="matrix(0.05,0,0,0.05,28.950000000000003,0)" xlink:href="#K"/><use transform="matrix(0.05,0,0,0.05,34.9,0)" xlink:href="#S"/><use transform="matrix(0.05,0,0,0.05,43.9,0)" xlink:href="#T"/><use transform="matrix(0.05,0,0,0.05,53.900000000000006,0)" xlink:href="#U"/></g><g id="A"><use transform="matrix(0.05,0,0,0.05,0,0)" xlink:href="#ai"/><use transform="matrix(0.05,0,0,0.05,5,0)" xlink:href="#V"/><use transform="matrix(0.05,0,0,0.05,15,0)" xlink:href="#Y"/><use transform="matrix(0.05,0,0,0.05,24,0)" xlink:href="#K"/><use transform="matrix(0.05,0,0,0.05,29.950000000000003,0)" xlink:href="#L"/><use transform="matrix(0.05,0,0,0.05,39.95,0)" xlink:href="#R"/><use transform="matrix(0.05,0,0,0.05,54.900000000000006,0)" xlink:href="#L"/><use transform="matrix(0.05,0,0,0.05,64.9,0)" xlink:href="#V"/><use transform="matrix(0.05,0,0,0.05,74.9,0)" xlink:href="#W"/></g><g id="B"><use transform="matrix(0.05,0,0,0.05,0,0)" xlink:href="#M"/><use transform="matrix(0.05,0,0,0.05,9,0)" xlink:href="#Y"/><use transform="matrix(0.05,0,0,0.05,18,0)" xlink:href="#Q"/><use transform="matrix(0.05,0,0,0.05,28,0)" xlink:href="#K"/><use transform="matrix(0.05,0,0,0.05,33.95,0)" xlink:href="#L"/></g><path d="M206 0h-36l-40-164L89 0H53L-1-190h32L70-26l43-164h34l41 164 42-164h31" id="al"/><g id="C"><use transform="matrix(0.05,0,0,0.05,0,0)" xlink:href="#V"/><use transform="matrix(0.05,0,0,0.05,10,0)" xlink:href="#L"/><use transform="matrix(0.05,0,0,0.05,20,0)" xlink:href="#al"/></g></defs></g></svg>