<svg xmlns="http://www.w3.org/2000/svg" xmlns:xlink="http://www.w3.org/1999/xlink" width="262" height="1051"><g transform="translate(-389 -60)"><path d="M520 220l80 60-80 60-80-60z" stroke="#000" stroke-width="2" fill="#fff"/><use xlink:href="#a" transform="matrix(1,0,0,1,445,225) translate(12.024999999999999 58.6)"/><use xlink:href="#b" transform="matrix(1,0,0,1,445,225) translate(31.025 58.6)"/><use xlink:href="#c" transform="matrix(1,0,0,1,445,225) translate(64.025 58.6)"/><path d="M568 80c17.67 0 32 17.9 32 40s-14.33 40-32 40h-96c-17.67 0-32-17.9-32-40s14.33-40 32-40z" stroke="#000" stroke-width="2" fill="#fff"/><use xlink:href="#d" transform="matrix(1,0,0,1,445,85) translate(3.5999999999999943 38.6)"/><use xlink:href="#e" transform="matrix(1,0,0,1,445,85) translate(39.599999999999994 38.6)"/><use xlink:href="#f" transform="matrix(1,0,0,1,445,85) translate(88.55 38.6)"/><path d="M520 160v58.75" stroke="#000" stroke-width="2" fill="none"/><path d="M520 218.75l-4.64-14.27h9.28z"/><path d="M520.52 220.4l-.52-.4-.52.4-5.5-16.92h12.03zm-3.78-14.92L520 215.5l3.26-10.02z"/><path d="M472 400h112c8.84 0 16 26.86 16 60s-7.16 60-16 60H472l-32-60z" stroke="#000" stroke-width="2" fill="#fff"/><use xlink:href="#g" transform="matrix(1,0,0,1,445,405) translate(6.924999999999997 47.8)"/><use xlink:href="#h" transform="matrix(1,0,0,1,445,405) translate(70.775 47.8)"/><use xlink:href="#i" transform="matrix(1,0,0,1,445,405) translate(46.825 69.4)"/><path d="M520 580l80 60-80 60-80-60z" stroke="#000" stroke-width="2" fill="#fff"/><use xlink:href="#a" transform="matrix(1,0,0,1,445,585) translate(23.525 47.8)"/><use xlink:href="#j" transform="matrix(1,0,0,1,445,585) translate(42.525 47.8)"/><use xlink:href="#k" transform="matrix(1,0,0,1,445,585) translate(82.525 47.8)"/><use xlink:href="#l" transform="matrix(1,0,0,1,445,585) translate(101.475 47.8)"/><use xlink:href="#m" transform="matrix(1,0,0,1,445,585) translate(7.799999999999997 69.4)"/><use xlink:href="#n" transform="matrix(1,0,0,1,445,585) translate(84.35 69.4)"/><path d="M600 280h40V180H520v40" stroke="#000" stroke-width="2" fill="none"/><path d="M600 281h-1.33l1.33-1-1.33-1H600zM520 220l-4.64-14.27h9.28z"/><path d="M520.85 220.63L520 220l-.85.63-5.16-15.9h12zm-4.1-13.9l3.25 10.03 3.26-10.03z"/><use xlink:href="#o" transform="matrix(1,0,0,1,611.1916666666666,284) translate(0 14.4)"/><path d="M440 760h160v120H440z" stroke="#000" stroke-width="2" fill="#fff"/><use xlink:href="#p" transform="matrix(1,0,0,1,445,765) translate(10.574999999999989 58.6)"/><use xlink:href="#q" transform="matrix(1,0,0,1,445,765) translate(95.475 58.6)"/><path d="M520 700v60" stroke="#000" stroke-width="2" fill="none"/><path d="M520 700h-1v-.75zm1 0h-1l1-.75zM520 760l-4.64-14.27h9.28z"/><path d="M521.05 760h-2.1L514 744.73h12zm-4.3-13.27l3.25 10.03 3.26-10.03z"/><use xlink:href="#r" transform="matrix(1,0,0,1,482.65,710.5333333333334) translate(0 14.4)"/><path d="M520 340v59" stroke="#000" stroke-width="2" fill="none"/><path d="M520 340h-1v-.75zm1 0h-1l1-.75zM520 399l-4.64-14.27h9.28z"/><path d="M520.73 400h-1.46L514 383.73h12zm-4-14.27l3.27 10.03 3.26-10.03z"/><use xlink:href="#r" transform="matrix(1,0,0,1,482.65,355.42222222222216) translate(0 14.4)"/><path d="M520 520v58.75" stroke="#000" stroke-width="2" fill="none"/><path d="M520 578.75l-4.64-14.27h9.28z"/><path d="M520.52 580.4l-.52-.4-.52.4-5.5-16.92h12.03zm-3.78-14.92L520 575.5l3.26-10.02z"/><path d="M520 880v60" stroke="#000" stroke-width="2" fill="none"/><path d="M520 940l-4.64-14.27h9.28z"/><path d="M521.05 940h-2.1L514 924.73h12zm-4.3-13.27l3.25 10.03 3.26-10.03z"/><path d="M440 640h-40V180h120" stroke="#000" stroke-width="2" fill="none"/><path d="M440 640l1.33 1H440v-2h1.33z"/><path d="M520 180l-14.27 4.64v-9.28z" stroke="#000" stroke-width="2"/><g><use xlink:href="#o" transform="matrix(1,0,0,1,407.99999999999994,614.4000000000001) translate(0 14.4)"/></g><path d="M472 940h112c8.84 0 16 26.86 16 60s-7.16 60-16 60H472l-32-60z" stroke="#000" stroke-width="2" fill="#fff"/><g><use xlink:href="#g" transform="matrix(1,0,0,1,445,945) translate(2.125 58.6)"/><use xlink:href="#s" transform="matrix(1,0,0,1,445,945) translate(65.97500000000001 58.6)"/><use xlink:href="#q" transform="matrix(1,0,0,1,445,945) translate(103.92500000000001 58.6)"/></g><path d="M520 1060v40H400V180h120" stroke="#000" stroke-width="2" fill="none"/><path d="M520 180l-14.27 4.64v-9.28z" stroke="#000" stroke-width="2"/><defs><path d="M33 0v-248h34V0H33" id="t"/><path d="M135-143c-3-34-86-38-87 0 15 53 115 12 119 90S17 21 10-45l28-5c4 36 97 45 98 0-10-56-113-15-118-90-4-57 82-63 122-42 12 7 21 19 24 35" id="u"/><g id="a"><use transform="matrix(0.05,0,0,0.05,0,0)" xlink:href="#t"/><use transform="matrix(0.05,0,0,0.05,5,0)" xlink:href="#u"/></g><path d="M143 0L79-87 56-68V0H24v-261h32v163l83-92h37l-77 82L181 0h-38" id="v"/><path d="M100-194c63 0 86 42 84 106H49c0 40 14 67 53 68 26 1 43-12 49-29l28 8c-11 28-37 45-77 45C44 4 14-33 15-96c1-61 26-98 85-98zm52 81c6-60-76-77-97-28-3 7-6 17-6 28h103" id="w"/><path d="M179-190L93 31C79 59 56 82 12 73V49c39 6 53-20 64-50L1-190h34L92-34l54-156h33" id="x"/><g id="b"><use transform="matrix(0.05,0,0,0.05,0,0)" xlink:href="#v"/><use transform="matrix(0.05,0,0,0.05,9,0)" xlink:href="#w"/><use transform="matrix(0.05,0,0,0.05,19,0)" xlink:href="#x"/></g><path d="M115-194c55 1 70 41 70 98S169 2 115 4C84 4 66-9 55-30l1 105H24l-1-265h31l2 30c10-21 28-34 59-34zm-8 174c40 0 45-34 45-75s-6-73-45-74c-42 0-51 32-51 76 0 43 10 73 51 73" id="y"/><path d="M114-163C36-179 61-72 57 0H25l-1-190h30c1 12-1 29 2 39 6-27 23-49 58-41v29" id="z"/><path d="M85-194c31 0 48 13 60 33l-1-100h32l1 261h-30c-2-10 0-23-3-31C134-8 116 4 85 4 32 4 16-35 15-94c0-66 23-100 70-100zm9 24c-40 0-46 34-46 75 0 40 6 74 45 74 42 0 51-32 51-76 0-42-9-74-50-73" id="A"/><path d="M103-251c84 0 111 97 45 133-19 10-37 24-39 52H78c0-63 77-55 77-114 0-30-21-42-52-43-32 0-53 17-56 46l-32-2c7-45 34-72 88-72zM77 0v-35h34V0H77" id="B"/><g id="c"><use transform="matrix(0.05,0,0,0.05,0,0)" xlink:href="#y"/><use transform="matrix(0.05,0,0,0.05,10,0)" xlink:href="#z"/><use transform="matrix(0.05,0,0,0.05,15.949999999999998,0)" xlink:href="#w"/><use transform="matrix(0.05,0,0,0.05,25.950000000000003,0)" xlink:href="#u"/><use transform="matrix(0.05,0,0,0.05,34.95,0)" xlink:href="#u"/><use transform="matrix(0.05,0,0,0.05,43.95,0)" xlink:href="#w"/><use transform="matrix(0.05,0,0,0.05,53.95,0)" xlink:href="#A"/><use transform="matrix(0.05,0,0,0.05,63.95,0)" xlink:href="#B"/></g><path d="M194 0L95-120 63-95V0H30v-248h33v124l119-124h40L117-140 236 0h-42" id="C"/><g id="d"><use transform="matrix(0.05,0,0,0.05,0,0)" xlink:href="#C"/><use transform="matrix(0.05,0,0,0.05,12,0)" xlink:href="#w"/><use transform="matrix(0.05,0,0,0.05,22,0)" xlink:href="#x"/></g><g id="e"><use transform="matrix(0.05,0,0,0.05,0,0)" xlink:href="#y"/><use transform="matrix(0.05,0,0,0.05,10,0)" xlink:href="#z"/><use transform="matrix(0.05,0,0,0.05,15.949999999999998,0)" xlink:href="#w"/><use transform="matrix(0.05,0,0,0.05,25.950000000000003,0)" xlink:href="#u"/><use transform="matrix(0.05,0,0,0.05,34.95,0)" xlink:href="#u"/></g><path d="M24 0v-261h32V0H24" id="D"/><path d="M24-231v-30h32v30H24zM24 0v-190h32V0H24" id="E"/><path d="M59-47c-2 24 18 29 38 22v24C64 9 27 4 27-40v-127H5v-23h24l9-43h21v43h35v23H59v120" id="F"/><path d="M117-194c89-4 53 116 60 194h-32v-121c0-31-8-49-39-48C34-167 62-67 57 0H25l-1-190h30c1 10-1 24 2 32 11-22 29-35 61-36" id="G"/><g id="f"><use transform="matrix(0.05,0,0,0.05,0,0)" xlink:href="#D"/><use transform="matrix(0.05,0,0,0.05,3.95,0)" xlink:href="#E"/><use transform="matrix(0.05,0,0,0.05,7.9,0)" xlink:href="#u"/><use transform="matrix(0.05,0,0,0.05,16.9,0)" xlink:href="#F"/><use transform="matrix(0.05,0,0,0.05,21.9,0)" xlink:href="#w"/><use transform="matrix(0.05,0,0,0.05,31.899999999999995,0)" xlink:href="#G"/><use transform="matrix(0.05,0,0,0.05,41.9,0)" xlink:href="#w"/><use transform="matrix(0.05,0,0,0.05,51.900000000000006,0)" xlink:href="#z"/></g><path d="M30-248c118-7 216 8 213 122C240-48 200 0 122 0H30v-248zM63-27c89 8 146-16 146-99s-60-101-146-95v194" id="H"/><path d="M141-36C126-15 110 5 73 4 37 3 15-17 15-53c-1-64 63-63 125-63 3-35-9-54-41-54-24 1-41 7-42 31l-33-3c5-37 33-52 76-52 45 0 72 20 72 64v82c-1 20 7 32 28 27v20c-31 9-61-2-59-35zM48-53c0 20 12 33 32 33 41-3 63-29 60-74-43 2-92-5-92 41" id="I"/><g id="g"><use transform="matrix(0.05,0,0,0.05,0,0)" xlink:href="#H"/><use transform="matrix(0.05,0,0,0.05,12.950000000000001,0)" xlink:href="#E"/><use transform="matrix(0.05,0,0,0.05,16.900000000000002,0)" xlink:href="#u"/><use transform="matrix(0.05,0,0,0.05,25.900000000000002,0)" xlink:href="#y"/><use transform="matrix(0.05,0,0,0.05,35.900000000000006,0)" xlink:href="#D"/><use transform="matrix(0.05,0,0,0.05,39.85000000000001,0)" xlink:href="#I"/><use transform="matrix(0.05,0,0,0.05,49.85000000000001,0)" xlink:href="#x"/></g><path d="M109-170H84l-4-78h32zm-65 0H19l-4-78h33" id="J"/><path d="M30-248c87 1 191-15 191 75 0 78-77 80-158 76V0H30v-248zm33 125c57 0 124 11 124-50 0-59-68-47-124-48v98" id="K"/><g id="h"><use transform="matrix(0.05,0,0,0.05,0,0)" xlink:href="#J"/><use transform="matrix(0.05,0,0,0.05,6.3500000000000005,0)" xlink:href="#K"/><use transform="matrix(0.05,0,0,0.05,18.35,0)" xlink:href="#z"/><use transform="matrix(0.05,0,0,0.05,24.3,0)" xlink:href="#w"/><use transform="matrix(0.05,0,0,0.05,34.3,0)" xlink:href="#u"/><use transform="matrix(0.05,0,0,0.05,43.3,0)" xlink:href="#u"/><use transform="matrix(0.05,0,0,0.05,52.29999999999999,0)" xlink:href="#w"/><use transform="matrix(0.05,0,0,0.05,62.29999999999999,0)" xlink:href="#A"/></g><path d="M115-194c53 0 69 39 70 98 0 66-23 100-70 100C84 3 66-7 56-30L54 0H23l1-261h32v101c10-23 28-34 59-34zm-8 174c40 0 45-34 45-75 0-40-5-75-45-74-42 0-51 32-51 76 0 43 10 73 51 73" id="L"/><path d="M84 4C-5 8 30-112 23-190h32v120c0 31 7 50 39 49 72-2 45-101 50-169h31l1 190h-30c-1-10 1-25-2-33-11 22-28 36-60 37" id="M"/><path d="M100-194c62-1 85 37 85 99 1 63-27 99-86 99S16-35 15-95c0-66 28-99 85-99zM99-20c44 1 53-31 53-75 0-43-8-75-51-75s-53 32-53 75 10 74 51 75" id="N"/><g id="i"><use transform="matrix(0.05,0,0,0.05,0,0)" xlink:href="#L"/><use transform="matrix(0.05,0,0,0.05,10,0)" xlink:href="#M"/><use transform="matrix(0.05,0,0,0.05,20,0)" xlink:href="#F"/><use transform="matrix(0.05,0,0,0.05,25,0)" xlink:href="#F"/><use transform="matrix(0.05,0,0,0.05,30,0)" xlink:href="#N"/><use transform="matrix(0.05,0,0,0.05,40,0)" xlink:href="#G"/><use transform="matrix(0.05,0,0,0.05,50,0)" xlink:href="#J"/></g><g id="j"><use transform="matrix(0.05,0,0,0.05,0,0)" xlink:href="#G"/><use transform="matrix(0.05,0,0,0.05,10,0)" xlink:href="#N"/><use transform="matrix(0.05,0,0,0.05,20,0)" xlink:href="#F"/><use transform="matrix(0.05,0,0,0.05,25,0)" xlink:href="#w"/></g><g id="k"><use transform="matrix(0.05,0,0,0.05,0,0)" xlink:href="#E"/><use transform="matrix(0.05,0,0,0.05,3.95,0)" xlink:href="#G"/></g><path d="M106-169C34-169 62-67 57 0H25v-261h32l-1 103c12-21 28-36 61-36 89 0 53 116 60 194h-32v-121c2-32-8-49-39-48" id="O"/><g id="l"><use transform="matrix(0.05,0,0,0.05,0,0)" xlink:href="#F"/><use transform="matrix(0.05,0,0,0.05,5,0)" xlink:href="#O"/><use transform="matrix(0.05,0,0,0.05,15,0)" xlink:href="#w"/></g><path d="M212-179c-10-28-35-45-73-45-59 0-87 40-87 99 0 60 29 101 89 101 43 0 62-24 78-52l27 14C228-24 195 4 139 4 59 4 22-46 18-125c-6-104 99-153 187-111 19 9 31 26 39 46" id="P"/><path d="M96-169c-40 0-48 33-48 73s9 75 48 75c24 0 41-14 43-38l32 2c-6 37-31 61-74 61-59 0-76-41-82-99-10-93 101-131 147-64 4 7 5 14 7 22l-32 3c-4-21-16-35-41-35" id="Q"/><g id="m"><use transform="matrix(0.05,0,0,0.05,0,0)" xlink:href="#J"/><use transform="matrix(0.05,0,0,0.05,6.3500000000000005,0)" xlink:href="#P"/><use transform="matrix(0.05,0,0,0.05,19.3,0)" xlink:href="#N"/><use transform="matrix(0.05,0,0,0.05,29.3,0)" xlink:href="#z"/><use transform="matrix(0.05,0,0,0.05,35.25,0)" xlink:href="#z"/><use transform="matrix(0.05,0,0,0.05,41.2,0)" xlink:href="#w"/><use transform="matrix(0.05,0,0,0.05,51.2,0)" xlink:href="#Q"/><use transform="matrix(0.05,0,0,0.05,60.2,0)" xlink:href="#F"/><use transform="matrix(0.05,0,0,0.05,65.2,0)" xlink:href="#J"/></g><path d="M108 0H70L1-190h34L89-25l56-165h34" id="R"/><g id="n"><use transform="matrix(0.05,0,0,0.05,0,0)" xlink:href="#E"/><use transform="matrix(0.05,0,0,0.05,3.95,0)" xlink:href="#G"/><use transform="matrix(0.05,0,0,0.05,13.949999999999998,0)" xlink:href="#F"/><use transform="matrix(0.05,0,0,0.05,18.95,0)" xlink:href="#w"/><use transform="matrix(0.05,0,0,0.05,28.950000000000003,0)" xlink:href="#z"/><use transform="matrix(0.05,0,0,0.05,34.9,0)" xlink:href="#R"/><use transform="matrix(0.05,0,0,0.05,43.9,0)" xlink:href="#I"/><use transform="matrix(0.05,0,0,0.05,53.900000000000006,0)" xlink:href="#D"/></g><path d="M190 0L58-211 59 0H30v-248h39L202-35l-2-213h31V0h-41" id="S"/><g id="o"><use transform="matrix(0.05,0,0,0.05,0,0)" xlink:href="#S"/><use transform="matrix(0.05,0,0,0.05,12.950000000000001,0)" xlink:href="#N"/></g><path d="M210-169c-67 3-38 105-44 169h-31v-121c0-29-5-50-35-48C34-165 62-65 56 0H25l-1-190h30c1 10-1 24 2 32 10-44 99-50 107 0 11-21 27-35 58-36 85-2 47 119 55 194h-31v-121c0-29-5-49-35-48" id="T"/><g id="p"><use transform="matrix(0.05,0,0,0.05,0,0)" xlink:href="#t"/><use transform="matrix(0.05,0,0,0.05,5,0)" xlink:href="#G"/><use transform="matrix(0.05,0,0,0.05,15,0)" xlink:href="#Q"/><use transform="matrix(0.05,0,0,0.05,24,0)" xlink:href="#z"/><use transform="matrix(0.05,0,0,0.05,29.950000000000003,0)" xlink:href="#w"/><use transform="matrix(0.05,0,0,0.05,39.95,0)" xlink:href="#T"/><use transform="matrix(0.05,0,0,0.05,54.900000000000006,0)" xlink:href="#w"/><use transform="matrix(0.05,0,0,0.05,64.9,0)" xlink:href="#G"/><use transform="matrix(0.05,0,0,0.05,74.9,0)" xlink:href="#F"/></g><g id="q"><use transform="matrix(0.05,0,0,0.05,0,0)" xlink:href="#u"/><use transform="matrix(0.05,0,0,0.05,9,0)" xlink:href="#Q"/><use transform="matrix(0.05,0,0,0.05,18,0)" xlink:href="#N"/><use transform="matrix(0.05,0,0,0.05,28,0)" xlink:href="#z"/><use transform="matrix(0.05,0,0,0.05,33.95,0)" xlink:href="#w"/></g><path d="M137-103V0h-34v-103L8-248h37l75 118 75-118h37" id="U"/><g id="r"><use transform="matrix(0.05,0,0,0.05,0,0)" xlink:href="#U"/><use transform="matrix(0.05,0,0,0.05,10.35,0)" xlink:href="#w"/><use transform="matrix(0.05,0,0,0.05,20.35,0)" xlink:href="#u"/></g><path d="M206 0h-36l-40-164L89 0H53L-1-190h32L70-26l43-164h34l41 164 42-164h31" id="V"/><g id="s"><use transform="matrix(0.05,0,0,0.05,0,0)" xlink:href="#G"/><use transform="matrix(0.05,0,0,0.05,10,0)" xlink:href="#w"/><use transform="matrix(0.05,0,0,0.05,20,0)" xlink:href="#V"/></g></defs></g></svg>